<?xml version="1.0" encoding="utf-8"?>
<!-- Generator: Adobe Illustrator 22.1.0, SVG Export Plug-In . SVG Version: 6.00 Build 0)  -->
<svg version="1.1" id="Layer_2_1_" xmlns="http://www.w3.org/2000/svg" xmlns:xlink="http://www.w3.org/1999/xlink" x="0px" y="0px"
	 viewBox="0 0 28 28" style="enable-background:new 0 0 28 28;" xml:space="preserve">
<style type="text/css">
	.st0{fill:#FFFFFF;}
</style>
<g>
	<g>
		<path d="M8.9,2.2c0.4,0,0.8,0.2,1,0.5l0.6,1c0.2,0.3,0.6,0.5,1,0.5h13.4c0.6,0,1.2,0.5,1.2,1.2v18c0,0.6-0.5,1.2-1.2,1.2H3.2
			c-0.6,0-1.2-0.5-1.2-1.2V7.5V3.4c0-0.6,0.5-1.2,1.2-1.2H8.9 M8.9,0.2H3.2C1.4,0.2,0,1.6,0,3.4v4.2v15.9c0,1.7,1.4,3.2,3.2,3.2
			h21.7c1.7,0,3.2-1.4,3.2-3.2v-18c0-1.7-1.4-3.2-3.2-3.2H12l-0.4-0.6C10.9,0.7,9.9,0.2,8.9,0.2L8.9,0.2z"/>
	</g>
</g>
<g>
	<rect x="2" y="6.5" width="24" height="2"/>
</g>
<g>
	<g>
		<path class="st0" d="M22.5,27.3c-2.7,0-5-2.2-5-5s2.2-5,5-5s5,2.2,5,5S25.2,27.3,22.5,27.3z"/>
	</g>
	<g>
		<path d="M22.5,18c2.3,0,4.3,2,4.3,4.3s-2,4.3-4.3,4.3s-4.3-2-4.3-4.3S20.1,18,22.5,18 M22.5,16.7c-3.1,0-5.6,2.5-5.6,5.6
			s2.5,5.6,5.6,5.6s5.6-2.5,5.6-5.6S25.6,16.7,22.5,16.7L22.5,16.7z"/>
	</g>
</g>
<g>
	<rect x="22" y="19.5" transform="matrix(0.7071 -0.7071 0.7071 0.7071 -9.1576 22.3916)" width="1" height="5.5"/>
</g>
<g>
	<rect x="19.7" y="21.8" transform="matrix(0.7071 -0.7071 0.7071 0.7071 -9.1576 22.3916)" width="5.5" height="1"/>
</g>
</svg>
