<?xml version="1.0" encoding="utf-8"?>
<!-- Generator: Adobe Illustrator 22.1.0, SVG Export Plug-In . SVG Version: 6.00 Build 0)  -->
<svg version="1.1" id="Layer_1" xmlns="http://www.w3.org/2000/svg" xmlns:xlink="http://www.w3.org/1999/xlink" x="0px" y="0px"
	 viewBox="0 0 30 33" style="enable-background:new 0 0 30 33;" xml:space="preserve">
<style type="text/css">
	.st0{fill:#FFFFFF;}
</style>
<g id="Layer_2_1_">
	<g>
		<path d="M23.1,29.3H1V0.7h14.9l7.2,7.2V29.3z M3,27.3h18.1V8.7l-6-6H3V27.3z"/>
	</g>
	<g>
		<g>
			<path d="M16.6,5.8L18,7.3h-1.4V5.8 M14.6,0.7v8.6h7.9L22,8.7L14.6,0.7L14.6,0.7z"/>
		</g>
	</g>
	<g>
		<g>
			<path class="st0" d="M21.1,31.7c-4.2,0-7.6-3.4-7.6-7.6s3.4-7.6,7.6-7.6s7.6,3.4,7.6,7.6S25.3,31.7,21.1,31.7z"/>
		</g>
		<g>
			<path d="M21.1,17.4c3.6,0,6.6,3,6.6,6.6s-3,6.6-6.6,6.6s-6.6-3-6.6-6.6S17.4,17.4,21.1,17.4 M21.1,15.4c-4.8,0-8.6,3.9-8.6,8.6
				s3.9,8.6,8.6,8.6s8.6-3.9,8.6-8.6S25.8,15.4,21.1,15.4L21.1,15.4z"/>
		</g>
	</g>
	<g>
		<rect x="20" y="19.7" transform="matrix(0.7071 -0.7071 0.7071 0.7071 -10.7494 21.8495)" width="2" height="8.5"/>
	</g>
	<g>
		<rect x="16.8" y="22.9" transform="matrix(0.7012 -0.7129 0.7129 0.7012 -10.7504 22.1482)" width="8.4" height="2"/>
	</g>
</g>
</svg>
