<?xml version="1.0" encoding="utf-8"?>
<!-- Generator: Adobe Illustrator 22.1.0, SVG Export Plug-In . SVG Version: 6.00 Build 0)  -->
<svg version="1.1" id="Layer_2_1_" xmlns="http://www.w3.org/2000/svg" xmlns:xlink="http://www.w3.org/1999/xlink" x="0px" y="0px"
	 viewBox="0 0 43 43" style="enable-background:new 0 0 43 43;" xml:space="preserve">
<style type="text/css">
	.st0{fill:#FFFFFF;}
</style>
<g>
	<path d="M42.2,14L40,26.1l-0.3,1.8l-2.1,11.7c-0.1,0.6-0.7,1.1-1.3,1.1H2.4c-0.8,0-1.4-0.7-1.3-1.5l2-11.3l2.6-14.3
		C5.8,13,6.4,12.5,7,12.5h33.9C41.7,12.4,42.3,13.2,42.2,14z"/>
	<path d="M36.3,41.7H2.4c-0.7,0-1.3-0.3-1.7-0.8c-0.4-0.5-0.6-1.2-0.6-1.8l2-11.3l2.6-14.3c0.2-1.1,1.2-1.9,2.3-1.9h33.8
		c0.6-0.1,1.2,0.2,1.7,0.6c0.5,0.5,0.8,1.3,0.7,2l0,0.1l-4.6,25.6C38.4,40.8,37.4,41.7,36.3,41.7z M7,13.5c-0.1,0-0.3,0.2-0.3,0.3
		L4.1,28.1l-2,11.3c0,0.1,0,0.2,0.1,0.2c0,0,0.1,0.1,0.2,0.1h33.9c0.1,0,0.3-0.2,0.3-0.3l4.6-25.6c0-0.1,0-0.3-0.1-0.3l-0.1,0
		l-0.1,0H7z"/>
</g>
<g>
	<g>
		<path d="M0.3,28.8L0.6,9.2c0-0.2,0.1-2.4,0.2-3.6c0-0.6,0.5-1.1,1.1-1.1h9.7c0.6,0,1.1,0.5,1.1,1.1v2.1c0,0.1,0,0.1,0,0.2
			S12.8,8,12.9,8h25c1,0,1.9,0.5,1.9,1.1v1.5H6.4c-0.3,0-2.4,0.2-2.6,0.9L0.9,28.8H0.3z"/>
	</g>
	<g>
		<path class="st0" d="M11.6,4.8c0.5,0,0.8,0.4,0.8,0.8v2.1c0,0.1,0,0.3,0.1,0.4s0.3,0.2,0.4,0.2h25c0.9,0,1.6,0.5,1.6,0.9v1.2H6.4
			c0,0-2.5,0.1-2.8,1.1l-2.9,17H0.5L0.9,9.2C0.9,9,1,7,1.1,5.6c0-0.5,0.4-0.8,0.8-0.8L11.6,4.8 M11.6,4.3H1.9
			c-0.7,0-1.3,0.6-1.3,1.3c0,0-0.2,3.3-0.2,3.6L0,29h1.1l3-17.4c0.1-0.4,1.7-0.7,2.3-0.7H40V9.2c0-0.8-0.9-1.4-2.1-1.4h-25
			c0,0,0,0,0-0.1V5.6C12.9,4.9,12.3,4.3,11.6,4.3L11.6,4.3z"/>
	</g>
</g>
</svg>
