<?xml version="1.0" encoding="utf-8"?>
<!-- Generator: Adobe Illustrator 22.1.0, SVG Export Plug-In . SVG Version: 6.00 Build 0)  -->
<svg version="1.1" id="Layer_2_1_" xmlns="http://www.w3.org/2000/svg" xmlns:xlink="http://www.w3.org/1999/xlink" x="0px" y="0px"
	 viewBox="0 0 31.7 26" style="enable-background:new 0 0 31.7 26;" xml:space="preserve">
<g>
	<path d="M27.5,25.9H2.1C0.9,25.9,0,25,0,23.8V2.2C0,1,0.9,0.1,2.1,0.1h25.4c1.2,0,2.1,0.9,2.1,2.1v21.7
		C29.6,25,28.6,25.9,27.5,25.9z M2.1,2.1c0,0-0.1,0.1-0.1,0.1v21.6c0,0,0.1,0.1,0.1,0.1h25.4c0,0,0.1,0,0.1-0.1l0-21.6
		c0,0-0.1-0.1-0.1-0.1H2.1z"/>
</g>
<g>
	<path d="M19.1,9.3h-8.6c-1.3,0-2.2-0.9-2.2-2.2V5c0-1.3,0.9-2.2,2.2-2.2h8.6c1.3,0,2.2,0.9,2.2,2.2v2.1C21.3,8.3,20.3,9.3,19.1,9.3
		z M10.5,4.8c-0.1,0-0.2,0.1-0.2,0.2v2.1c0,0.1,0.1,0.2,0.2,0.2h8.6c0.1,0,0.2-0.1,0.2-0.2V5c0-0.1-0.1-0.2-0.2-0.2H10.5z"/>
</g>
<g>
	<path d="M30.6,14H17.1v-2h11l-2.9-2.9l1.4-1.4l4.7,4.6c0.3,0.3,0.4,0.7,0.2,1.1C31.4,13.8,31,14,30.6,14z"/>
</g>
<g>
	<rect x="25.1" y="14.3" transform="matrix(0.7149 -0.6993 0.6993 0.7149 -2.5946 24.1368)" width="6.4" height="2"/>
</g>
</svg>
