<svg id="Layer_1" data-name="Layer 1" xmlns="http://www.w3.org/2000/svg" viewBox="0 0 17 23"><defs><style>.cls-1{opacity:0.5;}.cls-2{fill-opacity:0;}.cls-3{fill:#c471f4;}</style></defs><title>password</title><g id="Page-1" class="cls-1"><g id="Sign-In"><g id="Login"><g id="Password"><g id="Page-1-2" data-name="Page-1"><path id="Fill-1" class="cls-2" d="M14,4A5.27,5.27,0,0,0,9.21,1,5.06,5.06,0,0,0,4,6V9" transform="translate(-0.5 -0.5)"/><path class="cls-3" d="M4.5,9h-1V6A5.55,5.55,0,0,1,9.21.5a5.75,5.75,0,0,1,5.24,3.29l-.9.42A4.77,4.77,0,0,0,9.21,1.5,4.56,4.56,0,0,0,4.5,6Z" transform="translate(-0.5 -0.5)"/><path id="Fill-4" class="cls-2" d="M10.41,13.59a2,2,0,1,1-2.82,0,2,2,0,0,1,2.82,0" transform="translate(-0.5 -0.5)"/><path class="cls-3" d="M9,17.5a2.49,2.49,0,0,1-1.77-.73,2.52,2.52,0,0,1,0-3.54,2.57,2.57,0,0,1,3.54,0h0a2.52,2.52,0,0,1,0,3.54A2.49,2.49,0,0,1,9,17.5Zm0-4a1.5,1.5,0,0,0-1.06,2.56,1.53,1.53,0,0,0,2.12,0,1.49,1.49,0,0,0,0-2.12h0A1.5,1.5,0,0,0,9,13.5Z" transform="translate(-0.5 -0.5)"/><rect class="cls-3" x="8" y="16" width="1" height="3"/><polygon id="Fill-8" class="cls-2" points="0.5 8.5 16.5 8.5 16.5 22.5 0.5 22.5 0.5 8.5"/><path class="cls-3" d="M17.5,23.5H.5V8.5h17Zm-16-1h15V9.5H1.5Z" transform="translate(-0.5 -0.5)"/></g></g></g></g></g></svg>