<svg id="Layer_1" data-name="Layer 1" xmlns="http://www.w3.org/2000/svg" viewBox="0 0 21 23"><defs><style>.cls-1{opacity:0.5;}.cls-2{fill:#c471f4;}.cls-3{fill-opacity:0;}</style></defs><title>user</title><g id="Page-1" class="cls-1"><g id="Sign-In"><g id="Login"><g id="Username"><g id="Page-1-2" data-name="Page-1"><path class="cls-2" d="M10.5,12A5.51,5.51,0,0,1,5,6.5v-1a5.5,5.5,0,0,1,11,0v1A5.51,5.51,0,0,1,10.5,12Zm0-11A4.51,4.51,0,0,0,6,5.5v1a4.5,4.5,0,0,0,9,0v-1A4.51,4.51,0,0,0,10.5,1Z"/><path id="Fill-4" class="cls-3" d="M20.5,20.41a4,4,0,0,0-2.93-3.86A27.66,27.66,0,0,0,10.5,15.5a27.66,27.66,0,0,0-7.07,1.05A4,4,0,0,0,.5,20.41V22.5h20Z"/><path class="cls-2" d="M21,23H0V20.41a4.5,4.5,0,0,1,3.3-4.34A28.4,28.4,0,0,1,10.5,15a28.4,28.4,0,0,1,7.2,1.07A4.5,4.5,0,0,1,21,20.41ZM1,22H20V20.41A3.5,3.5,0,0,0,17.43,17a27.44,27.44,0,0,0-6.93-1,27.52,27.52,0,0,0-6.93,1A3.51,3.51,0,0,0,1,20.41Z"/></g></g></g></g></g></svg>