<svg id="Layer_1" data-name="Layer 1" xmlns="http://www.w3.org/2000/svg" xmlns:xlink="http://www.w3.org/1999/xlink" viewBox="0 0 45 45"><defs><style>.cls-1{fill:none;}.cls-2{clip-path:url(#clip-path);}.cls-3{fill:#c471f3;}</style><clipPath id="clip-path"><rect class="cls-1" x="-1424" y="-462" width="1920" height="1280"/></clipPath></defs><title>user-plus</title><g class="cls-2"><path class="cls-3" d="M20.5,25C15.64,25,10,19.54,10,12.5v-2a10.5,10.5,0,0,1,21,0v2C31,19.54,25.36,25,20.5,25Zm0-24A9.51,9.51,0,0,0,11,10.5v2C11,17.71,15.24,24,20.5,24S30,17.71,30,12.5v-2A9.51,9.51,0,0,0,20.5,1Z"/></g><g class="cls-2"><path class="cls-3" d="M22.5,43H0V38.36a7.47,7.47,0,0,1,5.36-7.2A54,54,0,0,1,20.5,29a53.41,53.41,0,0,1,7.89.58l-.14,1a53,53,0,0,0-22.6,1.55A6.47,6.47,0,0,0,1,38.36V42H22.5Z"/></g><g class="cls-2"><path class="cls-3" d="M35.5,45a9.5,9.5,0,1,1,6.72-2.78A9.49,9.49,0,0,1,35.5,45Zm0-18a8.5,8.5,0,1,0,6,2.49A8.46,8.46,0,0,0,35.5,27Z"/></g><g class="cls-2"><rect class="cls-3" x="35" y="32.5" width="1" height="6"/></g><g class="cls-2"><rect class="cls-3" x="32.5" y="35" width="6" height="1"/></g></svg>