<?xml version="1.0" standalone="no"?>
<!DOCTYPE svg PUBLIC "-//W3C//DTD SVG 1.1//EN" "http://www.w3.org/Graphics/SVG/1.1/DTD/svg11.dtd" >
<svg xmlns="http://www.w3.org/2000/svg">
<metadata>Generated by IcoMoon</metadata>
<defs>
<font id="icomoon" horiz-adv-x="1024">
<font-face units-per-em="1024" ascent="960" descent="-64" />
<missing-glyph horiz-adv-x="1024" />
<glyph unicode="&#x20;" horiz-adv-x="512" d="" />
<glyph unicode="&#xe900;" glyph-name="move-file" d="M880 35.2h-812.8c-38.4 0-67.2 28.8-67.2 67.2v691.2c0 38.4 28.8 67.2 67.2 67.2h812.8c38.4 0 67.2-28.8 67.2-67.2v-694.4c0-35.2-32-64-67.2-64zM67.2 796.8c0 0-3.2-3.2-3.2-3.2v-691.2c0 0 3.2-3.2 3.2-3.2h812.8c0 0 3.2 0 3.2 3.2v691.2c0 0-3.2 3.2-3.2 3.2h-812.8zM611.2 566.4h-275.2c-41.6 0-70.4 28.8-70.4 70.4v67.2c0 41.6 28.8 70.4 70.4 70.4h275.2c41.6 0 70.4-28.8 70.4-70.4v-67.2c0-38.4-32-70.4-70.4-70.4zM336 710.4c-3.2 0-6.4-3.2-6.4-6.4v-67.2c0-3.2 3.2-6.4 6.4-6.4h275.2c3.2 0 6.4 3.2 6.4 6.4v67.2c0 3.2-3.2 6.4-6.4 6.4h-275.2zM979.2 416h-432v64h352l-92.8 92.8 44.8 44.8 150.4-147.2c9.6-9.6 12.8-22.4 6.4-35.2-3.2-12.8-16-19.2-28.8-19.2zM811.18 326.162l146.412 143.217 44.755-45.754-146.412-143.217-44.755 45.754z" />
<glyph unicode="&#xe901;" glyph-name="search" d="M380.062 276.677c-169.354 0-307.2 137.846-307.2 307.2s137.846 307.2 307.2 307.2c169.354 0 307.2-137.846 307.2-307.2s-137.846-307.2-307.2-307.2zM380.062 851.692c-147.692 0-267.815-120.123-267.815-267.815s120.123-267.815 267.815-267.815c147.692 0 267.815 120.123 267.815 267.815s-120.123 267.815-267.815 267.815zM557.43 336.835l69.622 69.622 291.021-291.021-69.622-69.622-291.021 291.021z" />
<glyph unicode="&#xe902;" glyph-name="upload-file" d="M238.933 128.388h549.236v-62.061h-549.236v62.061zM543.030 202.861h-62.061v543.030l-173.77-170.667-43.442 43.442 226.521 223.418c9.309 9.309 21.721 12.412 34.133 6.206s18.618-15.515 18.618-27.927v-617.503zM488.747 797.56l44.181 43.585 226.643-229.741-44.181-43.585-226.643 229.741z" />
<glyph unicode="&#xe903;" d="M1004.949 626.605l-52.391-288.149-7.144-42.865-50.009-278.623c-2.381-14.288-16.67-26.195-30.958-26.195h-807.293c-19.051 0-33.34 16.67-30.958 35.721l47.628 269.098 61.916 340.54c2.381 14.288 16.67 26.195 30.958 26.195h807.293c19.051 2.381 33.34-16.67 30.958-35.721z" />
<glyph unicode="&#xe904;" d="M864.447-33.042h-807.293c-16.67 0-30.958 7.144-40.484 19.051s-14.288 28.577-14.288 42.865l47.628 269.098 61.916 340.54c4.763 26.195 28.577 45.247 54.772 45.247h804.912c14.288 2.381 28.577-4.763 40.484-14.288 11.907-11.907 19.051-30.958 16.67-47.628v-2.381l-109.544-609.637c-4.763-21.433-28.577-42.865-54.772-42.865zM166.698 638.512c-2.381 0-7.144-4.763-7.144-7.144l-61.916-340.54-47.628-269.098c0-2.381 0-4.763 2.381-4.763 0 0 2.381-2.381 4.763-2.381h807.293c2.381 0 7.144 4.763 7.144 7.144l109.544 609.637c0 2.381 0 7.144-2.381 7.144h-812.056z" />
<glyph unicode="&#xe905;" d="M7.144 274.158l7.144 466.753c0 4.763 2.381 57.153 4.763 85.73 0 14.288 11.907 26.195 26.195 26.195h230.995c14.288 0 26.195-11.907 26.195-26.195v-50.009c0-2.381 0-2.381 0-4.763s2.381-2.381 4.763-2.381h595.349c23.814 0 45.247-11.907 45.247-26.195v-35.721h-795.386c-7.144 0-57.153-4.763-61.916-21.433l-69.060-411.981h-14.288z" />
<glyph unicode="&#xe906;" d="M276.242 845.693c11.907 0 19.051-9.526 19.051-19.051v-50.009c0-2.381 0-7.144 2.381-9.526s7.144-4.763 9.526-4.763h595.349c21.433 0 38.102-11.907 38.102-21.433v-28.577h-788.242c0 0-59.535-2.381-66.679-26.195l-69.060-404.837h-4.763l9.526 459.609c0 4.763 2.381 52.391 4.763 85.73 0 11.907 9.526 19.051 19.051 19.051h230.995zM276.242 857.6h-230.995c-16.67 0-30.958-14.288-30.958-30.958 0 0-4.763-78.586-4.763-85.73l-9.526-471.516h26.195l71.442 414.363c2.381 9.526 40.484 16.67 54.772 16.67h800.149v40.484c0 19.051-21.433 33.34-50.009 33.34h-595.349c0 0 0 0 0 2.381v50.009c0 16.67-14.288 30.958-30.958 30.958v0z" />
<glyph unicode="&#xe907;" d="M325.486 879.543c14.629 0 29.257-7.314 36.571-18.286l21.943-36.571c7.314-10.971 21.943-18.286 36.571-18.286h490.057c21.943 0 43.886-18.286 43.886-43.886v-658.286c0-21.943-18.286-43.886-43.886-43.886h-793.6c-21.943 0-43.886 18.286-43.886 43.886v731.429c0 21.943 18.286 43.886 43.886 43.886h208.457zM325.486 952.686h-208.457c-65.829 0-117.029-51.2-117.029-117.029v-735.086c0-62.171 51.2-117.029 117.029-117.029h793.6c62.171 0 117.029 51.2 117.029 117.029v658.286c0 62.171-51.2 117.029-117.029 117.029h-471.771l-14.629 21.943c-25.6 36.571-62.171 54.857-98.743 54.857v0z" />
<glyph unicode="&#xe908;" d="M73.143 722.286h877.714v-73.143h-877.714v73.143z" />
<glyph unicode="&#xe909;" d="M822.857-38.4c-98.743 0-182.857 80.457-182.857 182.857s80.457 182.857 182.857 182.857 182.857-80.457 182.857-182.857-84.114-182.857-182.857-182.857z" />
<glyph unicode="&#xe90a;" d="M822.857 301.714c84.114 0 157.257-73.143 157.257-157.257s-73.143-157.257-157.257-157.257-157.257 73.143-157.257 157.257 69.486 157.257 157.257 157.257zM822.857 349.257c-113.371 0-204.8-91.429-204.8-204.8s91.429-204.8 204.8-204.8 204.8 91.429 204.8 204.8-91.429 204.8-204.8 204.8v0z" />
<glyph unicode="&#xe90b;" d="M738.269 205.756l25.86 25.86 142.228-142.228-25.86-25.86-142.228 142.228z" />
<glyph unicode="&#xe90c;" d="M738.269 86.802l142.228 142.228 25.86-25.86-142.228-142.228-25.86 25.86z" />
<glyph unicode="&#xe90d;" d="M763.345 50.812h-685.77v887.467h462.352l223.418-223.418v-664.048zM139.636 112.873h561.648v577.164l-186.182 186.182h-375.467v-763.345z" />
<glyph unicode="&#xe90e;" d="M561.648 780.024l43.442-46.545h-43.442v46.545zM499.588 938.279v-266.861h245.139l-15.515 18.618-229.624 248.242z" />
<glyph unicode="&#xe90f;" d="M701.285-23.661c-130.327 0-235.83 105.503-235.83 235.83s105.503 235.83 235.83 235.83 235.83-105.503 235.83-235.83-105.503-235.83-235.83-235.83z" />
<glyph unicode="&#xe910;" d="M701.285 420.073c111.709 0 204.8-93.091 204.8-204.8s-93.091-204.8-204.8-204.8-204.8 93.091-204.8 204.8 89.988 204.8 204.8 204.8zM701.285 482.133c-148.945 0-266.861-121.018-266.861-266.861s121.018-266.861 266.861-266.861 266.861 121.018 266.861 266.861-121.018 266.861-266.861 266.861v0z" />
<glyph unicode="&#xe911;" d="M584.067 288.586l43.883 43.883 186.503-186.503-43.883-43.883-186.503 186.503z" />
<glyph unicode="&#xe912;" d="M585.082 146.107l182.771 185.821 44.243-43.517-182.771-185.821-44.243 43.517z" />
<glyph unicode="&#xe913;" glyph-name="plus-square" d="M861.867 98.133h-705.422v705.422h705.422v-705.422zM213.333 155.022h591.644v591.644h-591.644v-591.644zM480.711 604.444h56.889v-307.2h-56.889v307.2zM352.711 479.289h310.044v-56.889h-310.044v56.889z" />
<glyph unicode="&#xe914;" glyph-name="user-plus" d="M466.489 391.111c-110.592 0-238.933 124.245-238.933 284.444v45.511c0 131.959 106.974 238.933 238.933 238.933s238.933-106.974 238.933-238.933v0-45.511c0-160.199-128.341-284.444-238.933-284.444zM466.489 937.244c-119.34-0.129-216.048-96.838-216.178-216.165v-45.523c0-118.556 96.484-261.689 216.178-261.689s216.178 143.132 216.178 261.689v45.511c-0.129 119.34-96.838 216.048-216.165 216.178h-0.012zM512-18.489h-512v105.586c-0.001 0.231-0.002 0.504-0.002 0.778 0 76.766 50.886 141.646 120.768 162.75l1.204 0.312c103.038 31.194 221.454 49.152 344.064 49.152 0.16 0 0.32 0 0.48 0h-0.025c0.271 0 0.592 0 0.913 0 63.033 0 124.946-4.798 185.392-14.050l-6.763 0.852-3.186-22.756c-53.049 8.266-114.235 12.988-176.523 12.988-120.362 0-236.606-17.632-346.29-50.453l8.537 2.194c-61.657-18.494-105.814-74.732-105.814-141.284 0-0.17 0-0.34 0.001-0.51v0.026-82.83h489.244zM807.822-64c-119.343 0.064-216.065 96.826-216.065 216.178 0 119.392 96.786 216.178 216.178 216.178s216.178-96.786 216.178-216.178c0-59.724-24.219-113.791-63.372-152.916l-0.001-0.001c-39.080-39.085-93.072-63.261-152.71-63.261-0.073 0-0.146 0-0.219 0h0.011zM807.822 345.6c-0.073 0-0.16 0-0.246 0-106.824 0-193.422-86.598-193.422-193.422s86.598-193.422 193.422-193.422c106.824 0 193.422 86.598 193.422 193.422 0 53.407-21.646 101.759-56.643 136.761v0c-34.865 35.003-83.104 56.661-136.402 56.661-0.046 0-0.092 0-0.139 0h0.007zM796.444 220.444h22.756v-136.533h-22.756v136.533zM739.556 163.556h136.533v-22.756h-136.533v22.756z" />
<glyph unicode="&#xe915;" glyph-name="password" d="M311.652 581.565h-44.522v133.565c1.202 135.551 111.366 244.973 247.087 244.973 2.508 0 5.008-0.037 7.498-0.112l-0.365 0.009c0.565 0.005 1.233 0.007 1.902 0.007 101.596 0 189.37-59.182 230.726-144.952l0.666-1.531-40.070-18.699c-35.029 71.953-107.6 120.661-191.547 120.661-0.59 0-1.179-0.002-1.768-0.007l0.090 0.001c-1.996 0.070-4.34 0.11-6.694 0.11-111.224 0-201.558-89.441-203.002-200.322l-0.001-0.136zM512 203.13c-0.114 0-0.248-0.001-0.383-0.001-30.629 0-58.356 12.421-78.42 32.501l-0.001 0.001c-19.989 20.249-32.334 48.085-32.334 78.803s12.346 58.555 32.346 78.816l-0.012-0.012c20.476 19.479 48.24 31.462 78.803 31.462s58.328-11.983 78.851-31.507l-0.048 0.045c19.989-20.249 32.334-48.085 32.334-78.803s-12.346-58.555-32.346-78.816l0.012 0.012c-20.065-20.080-47.792-32.502-78.421-32.502-0.135 0-0.269 0-0.404 0.001h0.021zM512 381.217c-36.858-0.033-66.724-29.92-66.724-66.783 0-18.427 7.463-35.111 19.531-47.194l-0.001 0.001c12.222-11.756 28.862-18.997 47.193-18.997s34.971 7.241 47.215 19.018l-0.022-0.021c12.176 12.032 19.717 28.732 19.717 47.193s-7.541 35.161-19.71 47.187l-0.006 0.006c-12.075 12.089-28.758 19.573-47.19 19.59h-0.003zM489.739 247.652h44.522v-133.565h-44.522v133.565zM890.435-64h-756.87v667.826h756.87zM178.087-19.478h667.826v578.783h-667.826z" />
<glyph unicode="&#xe916;" glyph-name="user" d="M512 425.739c-135.136 0.253-244.617 109.734-244.87 244.845v44.546c0 135.238 109.632 244.87 244.87 244.87s244.87-109.632 244.87-244.87v0-44.522c-0.253-135.136-109.734-244.617-244.845-244.87h-0.024zM512 915.478c-110.547-0.253-200.095-89.801-200.348-200.324v-44.546c0-110.649 89.699-200.348 200.348-200.348s200.348 89.699 200.348 200.348v0 44.522c-0.253 110.547-89.801 200.095-200.324 200.348h-0.024zM979.478-64h-934.957v115.311c0 0.039 0 0.085 0 0.131 0 91.635 61.519 168.901 145.509 192.75l1.412 0.343c95.528 28.138 205.572 45.385 319.295 47.619l1.261 0.020c114.985-2.253 225.028-19.501 329.49-49.862l-8.934 2.224c85.403-24.192 146.922-101.458 146.922-193.093 0-0.046 0-0.092 0-0.139v0.007zM89.043-19.478h845.913v70.79c0.005 0.473 0.008 1.033 0.008 1.592 0 71.328-47.925 131.463-113.331 149.961l-1.098 0.265c-92.063 26.63-198.053 42.771-307.541 44.509l-0.994 0.012c-110.497-1.793-216.483-17.932-317.177-46.628l8.641 2.106c-66.526-18.929-114.426-79.153-114.426-150.565 0-0.441 0.002-0.882 0.005-1.322v0.067z" />
</font>
</defs>
</svg>
